<?xml version="1.0" encoding="utf-8"?>
<!-- Generator: Adobe Illustrator 27.5.0, SVG Export Plug-In . SVG Version: 6.00 Build 0)  -->
<svg version="1.1" id="Capa_1" xmlns="http://www.w3.org/2000/svg" xmlns:xlink="http://www.w3.org/1999/xlink" x="0px" y="0px"
	 viewBox="0 0 2122 2122" style="enable-background:new 0 0 2122 2122;" xml:space="preserve">
<g>
	<path style="fill:#5B2D04;" d="M1054.266,1871.59c-174.313,0-315.613-42.164-315.613-94.172v44.113
		c0,52.012,141.301,94.172,315.613,94.172c174.324,0,315.621-42.16,315.621-94.172l-2.957-31.371
		C1346.066,1836.141,1214.09,1871.59,1054.266,1871.59z"/>
	<path style="fill:#783B0D;" d="M965.184,1749.418l13.652-63.449c-136.98,10.027-238.805,46.719-240.109,90.602
		c-0.008,0.281-0.074,0.559-0.074,0.848c0,52.008,141.301,94.172,315.613,94.172c159.824,0,291.801-35.449,312.664-81.43
		c1.895-4.168,2.957-8.418,2.957-12.742c0-44.387-102.926-81.578-241.434-91.539l14.902,63.539
		C1056.809,1800.324,965.184,1749.418,965.184,1749.418z"/>
	<path style="fill:#72C1CE;" d="M455.664,1010.09c0.926-0.137,1.867-0.242,2.797-0.371c-1.227-3.66-2.41-7.34-3.527-11.043
		c-12.125-40.27-17.336-81.953-17.898-123.824c-15.523,6.504-27.742,11.766-46.605,10.074c-0.328-5.891-0.582-11.805-0.758-17.738
		c1.719,61.07,11.984,119.996,29.629,175.648c-2.91-9.207-5.617-18.504-8.129-27.883
		C426.07,1014.598,441.039,1012.207,455.664,1010.09z"/>
	<path style="fill:#72C1CE;" d="M1648.535,1022.508c12.32-43.906,20.074-89.719,22.742-136.898
		c-0.672,11.688-1.652,23.285-2.926,34.801c-18.773-0.344-38.129-2.668-55.598-9.406c-2.691,28.078-7.496,56.563-14.422,84.918
		C1614.133,1006.688,1630.898,1015.926,1648.535,1022.508z"/>
	<path style="fill:#72C1CE;" d="M693.715,1352.32c-19.801-27.031-48.391-42.832-77.156-58.719
		c-31.219-17.258-72.32-36.211-83.242-73.219c-12.316-41.754,68.121-58.293,40.758-103.875
		c-11.894-19.824-36.082-34.492-59.855-41.895c11.613,22.516,24.203,44.574,36.742,66.559c7.988,13.996-13.566,26.555-21.531,12.59
		c-15.809-27.699-32.039-55.715-46.184-84.637c-17.945-1.316-36.367-1.031-54.582,1.137c-1.43-3.879-2.797-7.781-4.145-11.695
		c51.438,148.711,156.02,272.594,291.051,348.965c0.731,0.192,1.441,0.504,2.152,0.797
		C714.109,1388.922,706.746,1370.102,693.715,1352.32z"/>
	<path style="fill:#72C1CE;" d="M588.894,383.891c2.797,4.086,5.77,8.078,8.965,11.957c21.039,25.605,56.285,44.875,89.441,35.652
		c30.617-8.508,59.09-23.438,89.785-31.914c12.559-3.465,29.066-7.586,41.012-0.363c7.969,4.805,8.672,15.969,7.004,27.332
		c2.809,2.105,4.766,5.418,4.766,10.016c0,4.215-0.027,8.445,0.215,12.652c0.039,0.746,0.129,1.488,0.176,2.227
		c0.137,0.547,0.281,1.113,0.43,1.684c-0.234-0.563-0.352-0.246-0.098,0.352c-0.691-0.676-1.09-0.605-0.137-0.023v0.016l0.164,0.043
		l0.039,0.086l0.109,0.063l-0.137-0.145l0.117,0.027l-0.012-0.168l0.059,0.184l0.031,0.012l-0.031-0.09l0.051,0.094l0.965,0.293
		c0.699,0.16,3.41,0.613,3.32,0.66c26.672,2.797,68.211-8.668,84.68,19.676c21.445,36.926-24.422,62.641-38.922,90.492
		c-5.23,10.043-17.031,7.449-22.059,0.172c-15.523,18.762-36.648,40.746-38.449,66.148c-0.672,9.398,1.109,18.336,1.918,27.652
		c1.5,17.387-16.867,25.813-29.945,32.52c-38.926,19.961-80.961-0.07-121.703-1.609c-30.957-1.172-57.254,24.227-70.84,49.941
		c-13.902,26.297-11.137,57.719-9.91,86.309c1.695,39.359-8.328,65.766-44.938,80.453c-8.176-10.566-27.859-20.746-35.5-25.789
		c-16.965-11.231-30.176-16.969-47.324-14.082c-0.016,44.578,4.383,89.008,18.754,131.598c1,2.961,2.137,5.859,3.199,8.793
		c14.438-1.469,28.898-2.969,42.883-5.969c14.781-3.176,33.121-17.211,49.813-19.113c3.398-8.617,17.41-12.93,24.203-2.578
		c7.68,11.719,17.617,21.496,30.391,24.379c3.82,0.867,10.68,1.078,16.527,0.273c3.012-0.418,10.914-2.445,15.707-3.984
		c23.688-7.578,45.66-20.539,70.238-25.375c23.363-4.598,55.824-1.867,61.844,26.348c2.348,11.008,0.488,22.207-0.066,33.281
		c-0.285,5.605-0.129,10.633,0.523,15.605c0.723,5.387,2.027,10.703,4.152,16.543c5.574,15.316,17.617,26.703,31.844,34.223
		c9.551,5.043,20.063,8.371,30.293,9.949c6.629,1.016,10.359,8.859,9.414,14.992c43.324,19.164,96.398,21.434,141.633,3.461
		c24.477,21.609,55.023,34.453,81.633,53.184c30.707,21.617,45.164,74.98,9.395,99.551c-21.074,14.488-47.93,17.086-68.473,33.211
		c-18.621,14.613-28.031,32.211-35.887,53.969c-13.652,37.891-21.856,78.332-27.371,118.879c19.137,1.715,38.508,2.645,58.094,2.645
		c131.652,0,254.027-39.688,355.855-107.711c-2.934-20.316-5.883-40.629-9.391-60.809c-22.125,13.219-45.637,24.145-70.52,32.301
		c-15.328,5.027-21.844-19.063-6.625-24.047c25.664-8.414,49.723-20.102,72.238-34.309c-7.383-36.168-17.336-71.707-33.039-105.848
		c-11.711-25.465-23.961-46.391-43.984-61.859c-2.086,1.934-4.961,3.168-8.711,3.039c-17.531-0.594-34.086-7.691-51.703-7.906
		c-16.859-0.203-34.172-0.801-48.078-11.578c-10.445-8.102-16.34-19.766-22.598-31.102c-3.027-5.52-6.039-11.957-9.996-16.848
		c-3.441-4.211-8.41-6.434-12.941-9.332l-0.027-0.023l-0.32,0.246c-1.055,0.461-3.762-0.012-4.895-0.047
		c-3.684-0.078-7.441-0.375-11.047-1.188c-7.543-1.691-13.945-6.207-19.012-11.949c-8.527-9.633-11.656-21.719-17.637-32.797
		c-4.969-9.211-13.039-14.578-20.355-21.953c-8.809-8.879-13.32-19.832-11.313-32.387c8.078-50.512,58.406-69.348,95.441-95.641
		c22.219-15.758,44.121-30.281,71.863-33.277c28.316-3.059,57.09,3.023,85.516,1.547c14.117-0.73,27.945-3.766,42.113-4.172
		c14.598-0.43,29.223,0.703,43.703,2.586c14.031,1.84,28.441,3.594,41.879,8.227c11.246,3.887,21.242,9.141,32.867,3.656
		c6.469-3.059,14.188-1.867,18.055,4.734c3.375,5.773,1.715,15.023-4.734,18.063c-2.25,1.066-4.473,1.938-6.695,2.707
		c6.461,5.41,11.703,12.246,15.027,21.019c14.781,38.977,48.887,66.332,80.203,92.375c1.48,1.234,3,2.426,4.504,3.637
		c6.176-27.477,10.387-54.977,12.414-81.883c-0.742-0.574-1.496-1.121-2.223-1.723c-31.895-26.41-33.668-73.563-31.531-111.48
		c0.309-5.559-6.668-9.555-11.313-6.492c-58.371,38.563-91.988-21.883-134.598-53.523c-20.133-14.961-43.332-20.684-68.004-16.859
		c-31.57,4.898-54.625,29.797-76.055,51.363c-11.711,11.781-23.016,23.953-35.273,35.168c-9.598,8.781-22.828,12.875-34.641,17.859
		c-26.949,11.367-54.203,22.551-81.996,31.883c-1.129,2.074-2.746,3.93-4.793,5.387c-12.688,9.109-30.16,11.188-45.34,11.715
		c-15.777,0.543-32.352-0.91-47.582-5.254c-14.285-4.082-26.27-12.773-30.918-27.586c-2.336-7.461-1.656-15.769-1.754-23.5
		c-0.086-6.695-0.156-13.398-0.027-20.098c0.566-27.762,4.266-60.156,28.531-77.762c5.75-4.168,12.938-7.691,20.023-8.633
		c9.383-1.242,19.691-0.433,29.184-0.211c6.273,0.137,12.363,1.25,18.406,2.816c0.625-1.078,1.199-2.32,1.688-3.285
		c7.902-15.676,9.898-34.809,10.25-52.113c0.391-20.363-2.211-40.637-2.309-60.988c-0.059-8,5.766-12.176,11.934-12.652
		c2.203-14.106,10.965-24.156,23.32-33.121c25.16,21.211,58.969,38.23,82.793,5.789c6.551-8.922,11.031-19.508,14.121-30.902
		c-72.273-46.629-112.234-111.523-90.211-150.098c11.781-20.641,39.074-29.84,73.684-28.035
		c-5.555-13.648-10.996-27.344-15.055-41.5c-7.441-26.02,3.461-45.617,21.242-61.07c16.484,4.801,32.688,10.242,48.59,16.301
		c-70.906-27-147.816-41.828-228.203-41.828c-194.113,0-368.074,86.223-485.703,222.445
		C558.992,413.766,573.582,398.453,588.894,383.891z"/>
	<path style="fill:#40AE90;" d="M1386.793,1382.531c3.523-2.355,7.016-4.75,10.484-7.176c0.527-0.367,1.059-0.727,1.586-1.094
		c3.27-2.297,6.512-4.629,9.738-6.984c0.695-0.508,1.395-1.008,2.086-1.52c3.125-2.301,6.227-4.629,9.305-6.988
		c0.762-0.578,1.523-1.16,2.281-1.75c3.043-2.344,6.066-4.719,9.063-7.117c0.75-0.594,1.488-1.195,2.23-1.797
		c3.016-2.434,6.012-4.891,8.984-7.375c0.652-0.551,1.305-1.109,1.957-1.66c3.051-2.574,6.086-5.172,9.086-7.809
		c0.465-0.398,0.918-0.813,1.379-1.219c3.184-2.805,6.344-5.637,9.473-8.504c0.039-0.039,0.082-0.078,0.125-0.113
		c17.035-15.645,33.219-32.195,48.477-49.578c0.285-0.328,0.578-0.645,0.859-0.969c2.605-2.977,5.168-5.988,7.719-9.016
		c0.598-0.711,1.207-1.41,1.801-2.129c2.383-2.848,4.73-5.734,7.066-8.629c0.73-0.898,1.461-1.801,2.18-2.707
		c2.242-2.816,4.461-5.652,6.656-8.504c0.77-1,1.543-2.004,2.309-3.016c2.148-2.82,4.27-5.656,6.375-8.512
		c0.77-1.051,1.539-2.102,2.305-3.164c2.078-2.867,4.141-5.742,6.172-8.645c0.73-1.039,1.453-2.086,2.172-3.133
		c2.051-2.961,4.082-5.93,6.086-8.926c0.629-0.941,1.242-1.891,1.867-2.836c2.07-3.133,4.125-6.277,6.141-9.449
		c0.414-0.652,0.816-1.313,1.23-1.969c9.699-15.398,18.781-31.23,27.172-47.473c0.031-0.07,0.07-0.137,0.105-0.203
		c1.754-3.398,3.453-6.82,5.148-10.254c0.504-1.012,1.016-2.016,1.508-3.035c1.523-3.129,3.004-6.285,4.48-9.441
		c0.625-1.336,1.258-2.664,1.871-4c1.379-3.012,2.723-6.047,4.059-9.082c0.668-1.512,1.332-3.02,1.984-4.535
		c1.277-2.965,2.523-5.934,3.75-8.918c0.664-1.613,1.324-3.223,1.98-4.844c1.188-2.949,2.355-5.914,3.508-8.883
		c0.637-1.66,1.266-3.316,1.891-4.98c1.117-2.973,2.219-5.961,3.301-8.957c0.602-1.672,1.184-3.352,1.773-5.031
		c1.055-3.02,2.102-6.043,3.113-9.082c0.551-1.648,1.078-3.309,1.613-4.961c1.004-3.102,2.008-6.207,2.961-9.328
		c0.469-1.52,0.906-3.051,1.367-4.578c0.977-3.285,1.961-6.57,2.891-9.879c0.027-0.09,0.055-0.18,0.078-0.269l-0.004-0.004
		c-17.637-6.582-34.402-15.82-50.203-26.586c-31.957,130.832-108.148,258.434-220.988,325.84c3.508,20.18,6.457,40.492,9.391,60.809
		l0,0C1386.754,1382.555,1386.773,1382.547,1386.793,1382.531z"/>
	<path style="fill:#40AE90;" d="M1576.523,979.637c-1.504-1.211-3.023-2.402-4.504-3.637
		c-31.316-26.043-65.422-53.398-80.203-92.375c-3.324-8.773-8.566-15.609-15.027-21.019c2.223-0.77,4.445-1.641,6.695-2.707
		c6.449-3.039,8.109-12.289,4.734-18.063c-3.867-6.602-11.586-7.793-18.055-4.734c-11.625,5.484-21.621,0.23-32.867-3.656
		c-13.438-4.633-27.848-6.387-41.879-8.227c-14.48-1.883-29.105-3.016-43.703-2.586c-14.168,0.406-27.996,3.441-42.113,4.172
		c-28.426,1.477-57.199-4.605-85.516-1.547c-27.742,2.996-49.645,17.519-71.863,33.277c-37.035,26.293-87.363,45.129-95.441,95.641
		c-2.008,12.555,2.504,23.508,11.313,32.387c7.316,7.375,15.387,12.742,20.355,21.953c5.98,11.078,9.109,23.164,17.637,32.797
		c5.066,5.742,11.469,10.258,19.012,11.949c3.605,0.813,7.363,1.109,11.047,1.188c1.133,0.035,3.84,0.508,4.895,0.047l0.32-0.246
		l0.027,0.023c4.531,2.898,9.5,5.121,12.941,9.332c3.957,4.891,6.969,11.328,9.996,16.848c6.258,11.336,12.152,23,22.598,31.102
		c13.906,10.777,31.219,11.375,48.078,11.578c17.617,0.215,34.172,7.313,51.703,7.906c3.75,0.129,6.625-1.106,8.711-3.039
		c20.023,15.469,32.273,36.395,43.984,61.859c15.703,34.141,25.656,69.68,33.039,105.848
		C1478.164,1228.988,1548.43,1104.57,1576.523,979.637z"/>
	<path style="fill:#40AE90;" d="M483.246,1069.125c-9.453-19.336-17.965-39.078-24.785-59.406c-0.93,0.129-1.871,0.234-2.797,0.371
		c-14.625,2.117-29.594,4.508-44.492,4.863c2.512,9.379,5.219,18.676,8.129,27.883c0.027,0.086,0.059,0.172,0.086,0.262
		c1.414,4.473,2.875,8.922,4.387,13.352c0.242,0.707,0.5,1.41,0.746,2.117c1.348,3.914,2.715,7.816,4.145,11.695
		C446.879,1068.094,465.301,1067.809,483.246,1069.125z"/>
	<path style="fill:#40AE90;" d="M574.074,1116.508c27.363,45.582-53.074,62.121-40.758,103.875
		c10.922,37.008,52.023,55.961,83.242,73.219c28.766,15.887,57.355,31.688,77.156,58.719c13.031,17.781,20.395,36.602,24.008,56.008
		c0.473,0.199,0.957,0.332,1.414,0.57c1.32,0.691,2.465,1.563,3.527,2.52c3.137,1.723,6.27,3.457,9.441,5.133
		c0.125,0.066,0.254,0.133,0.379,0.203c4.762,2.504,9.551,4.949,14.379,7.336c0.082,0.043,0.172,0.082,0.258,0.125
		c69.086,34.141,145.199,56.191,225.605,63.418c0.02,0,0.039,0.004,0.059,0.004l0,0c5.516-40.547,13.719-80.988,27.371-118.879
		c7.855-21.758,17.266-39.355,35.887-53.969c20.543-16.125,47.398-18.723,68.473-33.211c35.77-24.57,21.313-77.934-9.395-99.551
		c-26.609-18.73-57.156-31.574-81.633-53.184c-45.234,17.973-98.309,15.703-141.633-3.461c0.945-6.133-2.785-13.977-9.414-14.992
		c-10.231-1.578-20.742-4.906-30.293-9.949c-14.227-7.52-26.269-18.906-31.844-34.223c-2.125-5.84-3.43-11.156-4.152-16.543
		c-0.652-4.973-0.809-10-0.523-15.605c0.555-11.074,2.414-22.273,0.066-33.281c-6.019-28.215-38.48-30.945-61.844-26.348
		c-24.578,4.836-46.551,17.797-70.238,25.375c-4.793,1.539-12.695,3.566-15.707,3.984c-5.848,0.805-12.707,0.594-16.527-0.273
		c-12.773-2.883-22.711-12.66-30.391-24.379c-6.793-10.352-20.805-6.039-24.203,2.578c-16.691,1.902-35.031,15.938-49.813,19.113
		c-13.984,3-28.445,4.5-42.883,5.969c8.445,23.305,18.77,45.797,30.129,67.805C537.992,1082.016,562.18,1096.684,574.074,1116.508z
		 M593.914,1203.508c1.434,1.48,2.711,3.082,3.965,4.711c1.059,1.359,2.105,2.727,3.16,4.098c-1.809-2.348,0.387,0.449,0.641,0.75
		c1.664,1.996,3.383,3.98,5.352,5.68c0.348,0.309,0.578,0.512,0.719,0.652c0.141,0.09,0.238,0.141,0.449,0.277
		c1.031,0.664,2.066,1.27,3.148,1.832c6.008,3.172,7.793,11.398,4.473,17.066c-3.543,6.055-11.051,7.652-17.063,4.473
		c-5.344-2.813-10.16-6.867-14.023-11.508c-2.02-2.426-3.926-4.93-5.844-7.434c1.926,2.508-0.559-0.68-0.945-1.125
		c-0.543-0.629-1.094-1.242-1.668-1.836c-4.723-4.887-4.871-12.77,0-17.637C581.019,1198.762,589.191,1198.617,593.914,1203.508z"/>
	<path style="fill:#40AE90;" d="M535.078,441.746c-0.758,0.93-1.504,1.879-2.258,2.813c-2.535,3.117-5.059,6.246-7.535,9.41
		c-0.926,1.18-1.82,2.379-2.738,3.566c-2.27,2.949-4.539,5.902-6.762,8.891c-1.016,1.371-2.008,2.758-3.012,4.137
		c-2.078,2.84-4.152,5.684-6.188,8.559c-1.066,1.512-2.102,3.039-3.16,4.563c-1.926,2.777-3.848,5.559-5.734,8.367
		c-1.086,1.625-2.152,3.27-3.227,4.902c-1.801,2.738-3.594,5.48-5.352,8.246c-1.098,1.719-2.164,3.457-3.242,5.191
		c-1.695,2.719-3.379,5.445-5.031,8.191c-1.086,1.797-2.145,3.613-3.211,5.422c-1.594,2.711-3.176,5.426-4.738,8.16
		c-1.066,1.875-2.109,3.762-3.156,5.652c-1.504,2.703-3,5.418-4.461,8.148c-1.043,1.941-2.066,3.895-3.09,5.844
		c-1.414,2.707-2.82,5.422-4.199,8.152c-1.016,2.012-2.012,4.031-3.012,6.055c-1.324,2.703-2.645,5.41-3.938,8.137
		c-0.984,2.07-1.949,4.148-2.914,6.231c-1.246,2.715-2.484,5.434-3.695,8.164c-0.945,2.125-1.875,4.258-2.797,6.395
		c-1.176,2.719-2.324,5.441-3.465,8.176c-0.902,2.18-1.793,4.367-2.68,6.559c-1.09,2.727-2.172,5.465-3.23,8.211
		c-0.855,2.227-1.711,4.453-2.539,6.684c-1.027,2.746-2.027,5.508-3.02,8.273c-0.809,2.258-1.609,4.523-2.391,6.797
		c-0.957,2.766-1.883,5.543-2.805,8.328c-0.75,2.297-1.504,4.59-2.234,6.898c-0.887,2.793-1.738,5.598-2.586,8.41
		c-0.703,2.324-1.406,4.648-2.078,6.981c-0.816,2.816-1.598,5.644-2.371,8.473c-0.648,2.359-1.301,4.719-1.918,7.086
		c-0.746,2.844-1.453,5.699-2.16,8.555c-0.586,2.379-1.18,4.75-1.738,7.137c-0.68,2.875-1.313,5.762-1.949,8.648
		c-0.527,2.398-1.066,4.797-1.57,7.207c-0.602,2.906-1.164,5.824-1.73,8.742c-0.465,2.414-0.945,4.82-1.387,7.242
		c-0.535,2.945-1.023,5.906-1.516,8.867c-0.41,2.418-0.828,4.832-1.207,7.262c-0.465,2.996-0.879,6.012-1.301,9.019
		c-0.344,2.41-0.703,4.813-1.016,7.231c-0.395,3.078-0.738,6.176-1.094,9.262c-0.27,2.375-0.566,4.738-0.809,7.117
		c-0.332,3.176-0.598,6.371-0.879,9.559c-0.203,2.316-0.438,4.629-0.617,6.953c-0.258,3.332-0.453,6.684-0.66,10.035
		c-0.137,2.191-0.301,4.379-0.418,6.582c-0.191,3.715-0.305,7.453-0.438,11.184c-0.059,1.851-0.16,3.691-0.211,5.547
		c-0.141,5.594-0.219,11.203-0.219,16.832c0,6.047,0.094,12.074,0.27,18.078c0.004,0.106,0.008,0.207,0.008,0.313
		c0.176,5.934,0.43,11.848,0.758,17.738c18.863,1.691,31.082-3.57,46.605-10.074c-0.188-13.891,0.137-27.801,0.887-41.691
		c7.141-131.676,58.34-250.457,136.406-355.524c9.477-12.754,31.145-0.336,21.535,12.59
		c-74.742,100.602-127.668,216.16-132.996,342.934c-0.469,11.078-0.73,22.176-0.73,33.258c17.148-2.887,30.359,2.851,47.324,14.082
		c7.641,5.043,27.324,15.223,35.5,25.789c36.609-14.688,46.633-41.094,44.938-80.453c-1.227-28.59-3.992-60.012,9.91-86.309
		c13.586-25.715,39.883-51.113,70.84-49.941c40.742,1.539,82.777,21.57,121.703,1.609c13.078-6.707,31.445-15.133,29.945-32.52
		c-0.809-9.316-2.59-18.254-1.918-27.652c1.801-25.402,22.926-47.387,38.449-66.148c5.027,7.277,16.828,9.871,22.059-0.172
		c14.5-27.852,60.367-53.566,38.922-90.492c-16.469-28.344-58.008-16.879-84.68-19.676c0.09-0.047-2.621-0.5-3.32-0.66l-0.965-0.293
		l-0.051-0.094l0.031,0.09l-0.031-0.012l-0.059-0.184l0.012,0.168l-0.117-0.027l0.137,0.145l-0.109-0.063l-0.039-0.086l-0.164-0.043
		v-0.016c-0.953-0.582-0.555-0.652,0.137,0.023c-0.254-0.598-0.137-0.914,0.098-0.352c-0.148-0.57-0.293-1.137-0.43-1.684
		c-0.047-0.738-0.137-1.48-0.176-2.227c-0.242-4.207-0.215-8.438-0.215-12.652c0-4.598-1.957-7.91-4.766-10.016
		c1.668-11.363,0.965-22.527-7.004-27.332c-11.945-7.223-28.453-3.102-41.012,0.363c-30.695,8.477-59.168,23.406-89.785,31.914
		c-33.156,9.223-68.402-10.047-89.441-35.652c-3.195-3.879-6.168-7.871-8.965-11.957c-15.313,14.563-29.902,29.875-43.719,45.875
		c-0.48,0.547-0.938,1.109-1.406,1.656C540.844,434.836,537.938,438.27,535.078,441.746z"/>
	<path style="fill:#40AE90;" d="M1189.25,293.918c4.059,14.156,9.5,27.852,15.055,41.5c34.691,1.813,76.734,14.68,117.895,38.168
		c82.223,46.926,129.754,118.473,106.164,159.805c-23.59,41.324-109.367,36.785-191.582-10.141
		c-5.473-3.125-10.785-6.367-15.949-9.699c-3.09,11.395-7.57,21.98-14.121,30.902c-23.824,32.441-57.633,15.422-82.793-5.789
		c-12.355,8.965-21.117,19.016-23.32,33.121c-6.168,0.477-11.992,4.652-11.934,12.652c0.098,20.352,2.699,40.625,2.309,60.988
		c-0.352,17.305-2.348,36.438-10.25,52.113c-0.488,0.965-1.063,2.207-1.688,3.285c-6.043-1.566-12.133-2.68-18.406-2.816
		c-9.492-0.223-19.801-1.031-29.184,0.211c-7.086,0.942-14.273,4.465-20.023,8.633c-24.266,17.605-27.965,50-28.531,77.762
		c-0.129,6.699-0.059,13.402,0.027,20.098c0.098,7.731-0.582,16.039,1.754,23.5c4.648,14.813,16.633,23.504,30.918,27.586
		c15.231,4.344,31.805,5.797,47.582,5.254c15.18-0.527,32.652-2.605,45.34-11.715c2.047-1.457,3.664-3.313,4.793-5.387
		c27.793-9.332,55.047-20.516,81.996-31.883c11.813-4.984,25.043-9.078,34.641-17.859c12.258-11.215,23.563-23.387,35.273-35.168
		c21.43-21.566,44.484-46.465,76.055-51.363c24.672-3.824,47.871,1.898,68.004,16.859c42.609,31.641,76.227,92.086,134.598,53.523
		c4.645-3.063,11.621,0.934,11.313,6.492c-2.137,37.918-0.363,85.07,31.531,111.48c0.727,0.602,1.48,1.148,2.223,1.723
		c0.879-11.68,1.363-23.25,1.441-34.656c0.109-16.082,25.055-16.09,24.945,0c-0.109,15.746-1.023,31.766-2.57,47.906
		c17.469,6.738,36.824,9.063,55.598,9.406c1.273-11.516,2.254-23.113,2.926-34.801c0.02-0.332,0.047-0.66,0.066-0.992
		c0.289-5.199,0.5-10.414,0.664-15.644c0.027-0.828,0.074-1.648,0.094-2.477c0.164-5.879,0.254-11.777,0.254-17.699
		c0-5.105-0.074-10.191-0.195-15.266c-0.039-1.629-0.102-3.25-0.152-4.875c-0.105-3.48-0.23-6.957-0.395-10.426
		c-0.086-1.852-0.188-3.703-0.289-5.551c-0.188-3.309-0.398-6.613-0.629-9.91c-0.129-1.801-0.25-3.601-0.395-5.398
		c-0.285-3.609-0.617-7.207-0.957-10.797c-0.137-1.418-0.258-2.84-0.398-4.254c-0.512-4.945-1.074-9.875-1.695-14.789
		c-0.129-1.008-0.277-2.012-0.41-3.023c-0.516-3.922-1.059-7.836-1.641-11.734c-0.266-1.746-0.547-3.48-0.824-5.215
		c-0.508-3.184-1.027-6.367-1.578-9.535c-0.328-1.871-0.66-3.734-1-5.598c-0.574-3.125-1.172-6.238-1.793-9.348
		c-0.352-1.766-0.695-3.539-1.055-5.297c-0.754-3.605-1.543-7.199-2.352-10.785c-0.273-1.203-0.523-2.418-0.801-3.621
		c-1.09-4.68-2.227-9.34-3.418-13.984c-0.391-1.523-0.809-3.035-1.207-4.555c-0.84-3.191-1.695-6.375-2.582-9.547
		c-0.527-1.871-1.066-3.731-1.609-5.594c-0.824-2.832-1.66-5.664-2.523-8.484c-0.582-1.918-1.18-3.84-1.781-5.75
		c-0.895-2.832-1.813-5.648-2.75-8.465c-0.594-1.805-1.18-3.613-1.793-5.41c-1.203-3.523-2.445-7.027-3.707-10.523
		c-0.625-1.731-1.25-3.461-1.891-5.184c-1.348-3.633-2.719-7.258-4.129-10.863c-0.738-1.871-1.496-3.727-2.246-5.59
		c-1.035-2.578-2.078-5.152-3.148-7.711c-0.848-2.023-1.707-4.039-2.574-6.051c-1.023-2.387-2.066-4.77-3.121-7.137
		c-0.906-2.047-1.816-4.086-2.742-6.117c-1.098-2.395-2.223-4.777-3.344-7.16c-0.918-1.941-1.824-3.887-2.758-5.813
		c-1.633-3.375-3.309-6.731-5.004-10.07c-1.281-2.527-2.586-5.039-3.898-7.547c-1.191-2.273-2.375-4.551-3.594-6.813
		c-1.145-2.117-2.309-4.223-3.473-6.328c-1.121-2.016-2.238-4.027-3.375-6.031c-1.227-2.156-2.465-4.309-3.711-6.449
		c-1.117-1.91-2.242-3.809-3.375-5.707c-1.301-2.176-2.598-4.352-3.918-6.508c-1.105-1.801-2.238-3.586-3.355-5.371
		c-3.387-5.406-6.836-10.766-10.379-16.059c-0.238-0.355-0.469-0.723-0.711-1.078c-1.57-2.34-3.176-4.648-4.781-6.961
		c-1.047-1.52-2.09-3.039-3.145-4.543c-1.613-2.289-3.246-4.555-4.887-6.82c-1.074-1.484-2.145-2.965-3.238-4.434
		c-1.68-2.289-3.375-4.566-5.09-6.828c-1.027-1.359-2.07-2.707-3.113-4.059c-1.813-2.355-3.625-4.707-5.465-7.035
		c-0.684-0.863-1.387-1.711-2.066-2.566c-4.512-5.637-9.113-11.203-13.809-16.684c-0.203-0.238-0.402-0.48-0.609-0.719
		c-2.117-2.465-4.277-4.906-6.434-7.34c-0.898-1.012-1.789-2.027-2.691-3.027c-2.105-2.348-4.23-4.672-6.371-6.984
		c-0.938-1.012-1.871-2.02-2.816-3.027c-2.207-2.359-4.43-4.707-6.676-7.031c-0.734-0.766-1.48-1.52-2.223-2.281
		c-8.203-8.414-16.621-16.613-25.273-24.57c-0.145-0.125-0.281-0.262-0.422-0.391c-2.645-2.426-5.32-4.824-8.008-7.211
		c-0.719-0.633-1.43-1.27-2.145-1.898c-2.621-2.309-5.262-4.594-7.922-6.855c-0.703-0.602-1.414-1.195-2.121-1.793
		c-2.781-2.352-5.578-4.684-8.402-6.984c-0.184-0.156-0.379-0.309-0.57-0.461c-9.629-7.832-19.484-15.391-29.563-22.668
		c-0.094-0.066-0.188-0.133-0.277-0.203c-3.121-2.242-6.262-4.457-9.418-6.645c-0.543-0.375-1.078-0.75-1.617-1.125
		c-3.125-2.148-6.262-4.277-9.418-6.371c-0.395-0.262-0.789-0.52-1.191-0.781c-13.832-9.137-28.031-17.754-42.59-25.82
		c-0.113-0.063-0.219-0.125-0.332-0.184c-3.496-1.938-7.02-3.84-10.563-5.711c-0.398-0.211-0.793-0.418-1.195-0.629
		c-1.688-0.891-3.402-1.754-5.105-2.633c-3.754,0.73-7.754,0.313-11.402-1.602c-3.414-1.785-5.938-4.559-7.516-7.762
		c-10.879-5.156-21.918-10.027-33.125-14.578c-0.223-0.09-0.445-0.18-0.672-0.27c-3.762-1.523-7.543-3.012-11.336-4.465
		c-0.332-0.125-0.668-0.254-1-0.379c-15.902-6.059-32.105-11.5-48.59-16.301C1192.711,248.301,1181.809,267.898,1189.25,293.918z
		 M1480.836,579.484c24.797,0,44.898,20.102,44.898,44.898c0,24.797-20.102,44.898-44.898,44.898
		c-24.801,0-44.902-20.102-44.902-44.898C1435.934,599.586,1456.035,579.484,1480.836,579.484z"/>
	<path style="fill:#A14F18;" d="M1312.73,276.602c3.648,1.914,7.648,2.332,11.402,1.602c0.031-0.004,0.059-0.012,0.09-0.02
		c4.992-0.992,9.527-4.078,12.078-8.941l20.852-39.781c111.27,61.875,199.121,149.945,259.887,252.547
		c63.52,107.277,97.422,230.352,97.414,355.492c-0.004,108.801-25.59,219.141-79.633,322.242
		c-62.172,118.582-153.645,211.676-260.934,275.207c-107.281,63.527-230.355,97.426-355.5,97.422
		c-103.336-0.004-208.051-23.141-306.641-71.766l14.746-28.141c3.746-7.145,2-15.66-3.664-20.883
		c-0.059-0.051-0.105-0.109-0.164-0.164c-1.063-0.957-2.207-1.828-3.527-2.52c-0.457-0.238-0.941-0.371-1.414-0.57
		c-0.711-0.293-1.422-0.605-2.152-0.797c-7.726-2.098-16.137,1.344-20.004,8.73l-22.977,43.836
		c-4.484,8.543-1.191,19.09,7.356,23.574c103.762,54.398,214.734,81.316,324.473,83.422l-25.582,118.875l-13.652,63.449
		c0,0,91.625,50.906,178.172,0l-14.902-63.539l-28.828-122.883h-2.773c103.98-11.242,204.691-44.629,294.828-97.996
		c112.668-66.699,208.844-164.605,274.07-289.043c56.711-108.176,83.633-224.188,83.633-338.457
		c-0.004-131.449-35.586-260.617-102.293-373.289c-66.703-112.66-164.605-208.836-289.043-274.063
		c-4.07-2.137-8.918-2.574-13.309-1.203c-4.391,1.371-8.125,4.488-10.262,8.563l-29.105,55.52
		c-2.688,5.125-2.531,10.957-0.164,15.781c0,0.012,0.004,0.02,0.008,0.031C1306.793,272.043,1309.316,274.816,1312.73,276.602z"/>
	<path style="fill:#6E2521;" d="M458.461,1009.719c6.82,20.328,15.332,40.07,24.785,59.406
		c14.145,28.922,30.375,56.938,46.184,84.637c7.965,13.965,29.519,1.406,21.531-12.59c-12.539-21.984-25.129-44.043-36.742-66.559
		c-11.359-22.008-21.684-44.5-30.129-67.805c-1.063-2.934-2.199-5.832-3.199-8.793c-14.371-42.59-18.77-87.02-18.754-131.598
		c0-11.082,0.262-22.18,0.73-33.258c5.328-126.773,58.254-242.332,132.996-342.934c9.609-12.926-12.059-25.344-21.535-12.59
		C496.262,582.703,445.063,701.484,437.922,833.16c-0.75,13.891-1.074,27.801-0.887,41.691
		c0.563,41.871,5.773,83.555,17.898,123.824C456.051,1002.379,457.234,1006.059,458.461,1009.719z"/>
	<path style="fill:#6E2521;" d="M576.277,1221.145c0.574,0.594,1.125,1.207,1.668,1.836c0.387,0.445,2.871,3.633,0.945,1.125
		c1.918,2.504,3.824,5.008,5.844,7.434c3.863,4.641,8.68,8.695,14.023,11.508c6.012,3.18,13.519,1.582,17.063-4.473
		c3.32-5.668,1.535-13.895-4.473-17.066c-1.082-0.563-2.117-1.168-3.148-1.832c-0.211-0.137-0.309-0.188-0.449-0.277
		c-0.141-0.141-0.371-0.344-0.719-0.652c-1.969-1.699-3.688-3.684-5.352-5.68c-0.254-0.301-2.449-3.098-0.641-0.75
		c-1.055-1.371-2.102-2.738-3.16-4.098c-1.254-1.629-2.531-3.23-3.965-4.711c-4.723-4.891-12.895-4.746-17.637,0
		C571.406,1208.375,571.555,1216.258,576.277,1221.145z"/>
	<path style="fill:#6E2521;" d="M1598.332,995.922c6.926-28.355,11.73-56.84,14.422-84.918c1.547-16.141,2.461-32.16,2.57-47.906
		c0.109-16.09-24.836-16.082-24.945,0c-0.078,11.406-0.563,22.977-1.441,34.656c-2.027,26.906-6.238,54.406-12.414,81.883
		c-28.094,124.934-98.359,249.352-204.086,316.07c-22.516,14.207-46.574,25.895-72.238,34.309
		c-15.219,4.984-8.703,29.074,6.625,24.047c24.883-8.156,48.395-19.082,70.52-32.301
		C1490.184,1254.355,1566.375,1126.754,1598.332,995.922z"/>
	<path style="fill:#FFFFFF;" d="M1428.363,533.391c23.59-41.332-23.941-112.879-106.164-159.805
		c-41.16-23.488-83.203-36.355-117.895-38.168c-34.609-1.805-61.902,7.395-73.684,28.035
		c-22.023,38.574,17.938,103.469,90.211,150.098c5.164,3.332,10.477,6.574,15.949,9.699
		C1318.996,570.176,1404.773,574.715,1428.363,533.391z"/>
	<path style="fill:#FFFFFF;" d="M1480.836,669.281c24.797,0,44.898-20.102,44.898-44.898c0-24.797-20.102-44.898-44.898-44.898
		c-24.801,0-44.902,20.102-44.902,44.898C1435.934,649.18,1456.035,669.281,1480.836,669.281z"/>
</g>
</svg>
