<?xml version="1.0" encoding="utf-8"?>
<!-- Generator: Adobe Illustrator 27.5.0, SVG Export Plug-In . SVG Version: 6.00 Build 0)  -->
<svg version="1.1" xmlns="http://www.w3.org/2000/svg" xmlns:xlink="http://www.w3.org/1999/xlink" x="0px" y="0px"
	 viewBox="0 0 750 500" style="enable-background:new 0 0 750 500;" xml:space="preserve">
<g id="BACKGROUND">
	<g>
		<rect style="fill-rule:evenodd;clip-rule:evenodd;fill:#9A9593;" width="750" height="500"/>
		<path style="fill:#D7CDCA;" d="M729.74,426.926h-3.451l17.392,12.371H650.27l-12.857-12.371h-2.885l12.857,12.371h-79.922
			l-8.979-12.371h-2.472l8.979,12.371h-77.974l-5.208-12.371h-2.171l5.208,12.371h-74.339l-1.62-12.371h-2.016l1.62,12.371h-66.982
			l1.62-12.371h-2.016l-1.62,12.371h-74.339l5.209-12.371h-2.17l-5.208,12.371h-77.975l8.979-12.371h-2.472l-8.979,12.371h-79.922
			l12.857-12.371h-2.885L99.73,439.297H6.319l17.392-12.371H20.26L2.868,439.297H0v2h0.057L0,441.337v2.454l3.507-2.495h94.144
			l-8.951,8.612H0v2h86.622l-12.33,11.864H0v2h72.213l-15.991,15.386H0v2h54.144L36.642,500h2.885l17.502-16.841h93.673L138.479,500
			h2.471l12.223-16.841h91.342L237.425,500h2.17l7.091-16.841h87.063L331.544,500h2.017l2.205-16.841h78.469L416.44,500h2.017
			l-2.205-16.841h87.063l7.09,16.841h2.171l-7.091-16.841h91.342L609.049,500h2.471l-12.223-16.841h93.673L710.473,500h2.885
			l-17.502-16.841H750v-2h-56.223l-15.99-15.386H750v-2h-74.292l-12.33-11.864H750v-2h-88.701l-8.951-8.612h94.144l3.507,2.495
			v-2.455l-0.057-0.04H750v-2h-2.869L729.74,426.926z M566.443,441.297l6.251,8.612h-81.209l-3.626-8.612H566.443z M492.327,451.909
			h81.818l8.611,11.864h-85.434L492.327,451.909z M495.152,463.773h-81.439l-1.553-11.864h77.998L495.152,463.773z M485.689,441.297
			l3.626,8.612h-77.417l-1.128-8.612H485.689z M341.247,441.297h67.506l1.128,8.612h-69.762L341.247,441.297z M339.858,451.909
			h70.285l1.554,11.864h-73.393L339.858,451.909z M264.311,441.297h74.92l-1.128,8.612h-77.418L264.311,441.297z M259.843,451.909
			h77.998l-1.553,11.864h-81.44L259.843,451.909z M252.677,463.773h-85.434l8.611-11.864h81.819L252.677,463.773z M183.556,441.297
			h78.584l-3.626,8.612h-81.21L183.556,441.297z M100.536,441.297h80.549l-6.251,8.612H91.585L100.536,441.297z M89.507,451.909
			h83.876l-8.611,11.864H77.176L89.507,451.909z M152.153,481.159H59.107l15.991-15.386h88.222L152.153,481.159z M245.358,481.159
			h-90.733l11.167-15.386h86.044L245.358,481.159z M334.011,481.159h-86.483l6.478-15.386h82.02L334.011,481.159z M336.028,481.159
			l2.015-15.386h73.916l2.015,15.386H336.028z M415.989,481.159l-2.014-15.386h82.019l6.478,15.386H415.989z M504.642,481.159
			l-6.478-15.386h86.044l11.166,15.386H504.642z M690.892,481.159h-93.046l-11.167-15.386h88.222L690.892,481.159z M672.823,463.773
			h-87.595l-8.611-11.864h83.876L672.823,463.773z M658.414,449.909h-83.249l-6.25-8.612h80.549L658.414,449.909z"/>
	</g>
	<g>
		<rect style="fill-rule:evenodd;clip-rule:evenodd;fill:#CCC1BC;" width="750" height="413.1"/>
		<g>
			<rect y="342.155" style="fill-rule:evenodd;clip-rule:evenodd;fill:#D7CDCA;" width="750" height="4.83"/>
			<rect y="269.628" style="fill-rule:evenodd;clip-rule:evenodd;fill:#D7CDCA;" width="750" height="4.83"/>
			<rect y="197.102" style="fill-rule:evenodd;clip-rule:evenodd;fill:#D7CDCA;" width="750" height="4.83"/>
			<rect y="124.576" style="fill-rule:evenodd;clip-rule:evenodd;fill:#D7CDCA;" width="750" height="4.83"/>
			<rect y="52.049" style="fill-rule:evenodd;clip-rule:evenodd;fill:#D7CDCA;" width="750" height="4.83"/>
		</g>
		<rect y="413.1" style="fill-rule:evenodd;clip-rule:evenodd;fill:#DFD5D1;" width="750" height="17.873"/>
	</g>
</g>
<g id="OBJECTS">
	<g>
		<g>
			<path style="opacity:0.4;fill-rule:evenodd;clip-rule:evenodd;fill:#595251;" d="M430.77,430.973H105.454
				c-8.717,0-15.784,7.067-15.784,15.784v0c0,8.717,7.067,15.784,15.784,15.784H430.77c8.717,0,15.784-7.067,15.784-15.784v0
				C446.554,438.04,439.487,430.973,430.77,430.973z"/>
			<g>
				<g>
					<path style="fill-rule:evenodd;clip-rule:evenodd;fill:#D9A777;" d="M433.694,295.921h-6.092l1.477,160.432
						c0.018,1.937,1.593,3.498,3.531,3.498h1.084h1.084c1.937,0,3.512-1.561,3.53-3.498l1.477-160.432H433.694z"/>
					<polygon style="fill-rule:evenodd;clip-rule:evenodd;fill:#BB8D64;" points="427.743,311.205 439.645,311.205 439.705,304.663 
						427.682,304.663 					"/>
				</g>
				<rect x="89.67" y="291.769" style="fill-rule:evenodd;clip-rule:evenodd;fill:#D9A777;" width="358.812" height="12.894"/>
				<g>
					<g>
						<path style="fill-rule:evenodd;clip-rule:evenodd;fill:#D9A777;" d="M99.985,295.921h-6.092l1.477,160.432
							c0.018,1.937,1.593,3.498,3.53,3.498h1.084h1.084c1.937,0,3.513-1.561,3.531-3.498l1.477-160.432H99.985z"/>
						<polygon style="fill-rule:evenodd;clip-rule:evenodd;fill:#BB8D64;" points="95.066,423.296 104.904,423.296 104.966,416.455 
							95.003,416.455 						"/>
					</g>
					<g>
						<path style="fill-rule:evenodd;clip-rule:evenodd;fill:#D9A777;" d="M229.604,295.921h-6.092l1.477,160.432
							c0.018,1.937,1.593,3.498,3.53,3.498h1.084h1.084c1.937,0,3.512-1.561,3.531-3.498l1.477-160.432H229.604z"/>
						<polygon style="fill-rule:evenodd;clip-rule:evenodd;fill:#BB8D64;" points="224.685,423.296 234.523,423.296 
							234.586,416.455 224.623,416.455 						"/>
					</g>
					<rect x="89.67" y="304.663" style="fill-rule:evenodd;clip-rule:evenodd;fill:#D9A777;" width="147.013" height="111.792"/>
					<rect x="95.169" y="311.205" style="fill-rule:evenodd;clip-rule:evenodd;fill:#E2E3D5;" width="45.913" height="101.005"/>
					<rect x="145.17" y="346.984" style="fill-rule:evenodd;clip-rule:evenodd;fill:#E2E3D5;" width="84.435" height="65.225"/>
					<rect x="145.17" y="311.205" style="fill-rule:evenodd;clip-rule:evenodd;fill:#E2E3D5;" width="84.435" height="30.95"/>
					<rect x="89.67" y="304.663" style="fill-rule:evenodd;clip-rule:evenodd;fill:#BB8D64;" width="147.013" height="6.542"/>
					<circle style="fill-rule:evenodd;clip-rule:evenodd;fill:#FFFFFF;" cx="132.861" cy="355.999" r="2.865"/>
					<path style="fill-rule:evenodd;clip-rule:evenodd;fill:#FFFFFF;" d="M154.238,376.621c0,1.582-1.283,2.865-2.865,2.865
						c-1.582,0-2.865-1.283-2.865-2.865c0-1.582,1.283-2.865,2.865-2.865C152.955,373.756,154.238,375.039,154.238,376.621z"/>
					<path style="fill-rule:evenodd;clip-rule:evenodd;fill:#FFFFFF;" d="M189.187,319.377c0,1.582-1.283,2.865-2.865,2.865
						s-2.865-1.283-2.865-2.865s1.283-2.865,2.865-2.865S189.187,317.794,189.187,319.377z"/>
				</g>
			</g>
		</g>
		<g>
			<path style="fill-rule:evenodd;clip-rule:evenodd;fill:#D7D8D9;" d="M284.209,257.26h-9.08c1.615,10.142,1.413,19.711,0,28.897
				h9.08h9.082c-1.413-9.186-1.614-18.756,0-28.897H284.209z"/>
			<path style="fill-rule:evenodd;clip-rule:evenodd;fill:#E7E7E8;" d="M365,149.098H203.42c-2.089,0-3.798,1.709-3.798,3.797
				v104.352c0,2.089,1.71,3.695,3.798,3.797c54.007,2.663,107.909,3.417,161.58,0c2.085-0.132,3.797-1.708,3.797-3.797V152.895
				C368.798,150.806,367.089,149.098,365,149.098z"/>
			<path style="fill-rule:evenodd;clip-rule:evenodd;fill:#363636;" d="M365,149.098H203.42c-2.089,0-3.798,1.709-3.798,3.797V250
				h169.175v-97.105C368.798,150.806,367.089,149.098,365,149.098z"/>
			<rect x="204.687" y="154.921" style="fill-rule:evenodd;clip-rule:evenodd;fill:#8B99A7;" width="159.045" height="89.906"/>
			<path style="fill-rule:evenodd;clip-rule:evenodd;fill:#E7E7E8;" d="M313.538,289.186l-8.226-3.467
				c-2.532-1.051-5.281-1.414-8.181-1.304h-12.922h-12.921c-2.901-0.111-5.65,0.253-8.181,1.304l-8.227,3.467
				c-3.464,1.545-6.058,2.584-1.601,2.584h30.93h30.93C319.597,291.769,317.003,290.731,313.538,289.186z"/>
			<g style="opacity:0.26;">
				<polygon style="fill:#E7E7E8;" points="211.496,244.827 225.87,244.827 261.807,154.921 247.432,154.921 				"/>
				<polygon style="fill:#E7E7E8;" points="308.189,154.921 304.067,154.921 268.131,244.827 272.253,244.827 				"/>
				<polygon style="fill:#E7E7E8;" points="351.386,154.921 347.263,154.921 311.327,244.827 315.449,244.827 				"/>
				<polygon style="fill:#E7E7E8;" points="343.419,154.921 329.045,154.921 293.108,244.827 307.483,244.827 				"/>
			</g>
			<path style="fill-rule:evenodd;clip-rule:evenodd;fill:#D7D8D9;" d="M287.504,257.053c0,1.819-1.475,3.294-3.294,3.294
				c-1.819,0-3.294-1.475-3.294-3.294c0-1.819,1.475-3.294,3.294-3.294C286.029,253.759,287.504,255.234,287.504,257.053z"/>
		</g>
		<g>
			<rect x="99.985" y="263.024" style="fill-rule:evenodd;clip-rule:evenodd;fill:#363636;" width="87.402" height="4.885"/>
			<path style="fill-rule:evenodd;clip-rule:evenodd;fill:#F8F8F1;" d="M99.985,267.909v20.91c0,1.63,1.322,2.951,2.952,2.951h81.5
				c1.63,0,2.951-1.321,2.951-2.951v-20.91H99.985z"/>
			<path style="fill-rule:evenodd;clip-rule:evenodd;fill:#F8F8F1;" d="M180.823,256.46h-74.274c-3.625,0-6.564,2.939-6.564,6.564
				h87.402C187.387,259.399,184.448,256.46,180.823,256.46z"/>
			<path style="fill-rule:evenodd;clip-rule:evenodd;fill:#363636;" d="M162.891,237.292h-38.409c-2.406,0-4.356,1.95-4.356,4.356
				v14.812h47.12v-14.812C167.246,239.242,165.296,237.292,162.891,237.292z"/>
		</g>
		<g>
			<g>
				<path style="fill-rule:evenodd;clip-rule:evenodd;fill:#D9A777;" d="M348.927,361.322l-3.756,0.669l18.526,98.746
					c0.224,1.192,1.366,1.982,2.561,1.769l0.668-0.119l0.668-0.119c1.194-0.213,1.994-1.348,1.792-2.544l-16.705-99.071
					L348.927,361.322z"/>
				<polygon style="fill-rule:evenodd;clip-rule:evenodd;fill:#BB8D64;" points="352.682,360.653 348.927,361.322 345.172,361.991 
					349.273,383.853 356.595,383.853 				"/>
				<path style="fill-rule:evenodd;clip-rule:evenodd;fill:#BB8D64;" d="M368.178,364.871l-3.617,1.212l32.789,94.968
					c0.396,1.147,1.642,1.76,2.792,1.375l0.644-0.216l0.644-0.216c1.15-0.385,1.775-1.626,1.4-2.779l-31.035-95.556L368.178,364.871
					z"/>
				<polygon style="fill-rule:evenodd;clip-rule:evenodd;fill:#BB8D64;" points="371.795,363.659 368.178,364.871 364.561,366.083 
					370.696,383.853 378.353,383.853 				"/>
				<path style="fill-rule:evenodd;clip-rule:evenodd;fill:#BB8D64;" d="M336.142,361.322l3.756,0.669l-18.526,98.746
					c-0.224,1.192-1.366,1.982-2.561,1.769l-0.668-0.119l-0.668-0.119c-1.194-0.213-1.994-1.348-1.792-2.544l16.705-99.071
					L336.142,361.322z"/>
				<polygon style="fill-rule:evenodd;clip-rule:evenodd;fill:#BB8D64;" points="332.386,360.653 328.474,383.853 335.796,383.853 
					339.897,361.991 336.142,361.322 				"/>
				<path style="fill-rule:evenodd;clip-rule:evenodd;fill:#D9A777;" d="M316.891,364.871l3.617,1.212l-32.789,94.968
					c-0.396,1.147-1.642,1.76-2.792,1.375l-0.644-0.216l-0.644-0.216c-1.15-0.385-1.775-1.626-1.4-2.779l31.035-95.556
					L316.891,364.871z"/>
				<polygon style="fill-rule:evenodd;clip-rule:evenodd;fill:#BB8D64;" points="313.274,363.659 306.716,383.853 314.373,383.853 
					320.508,366.083 316.891,364.871 				"/>
				<path style="fill-rule:evenodd;clip-rule:evenodd;fill:#161416;" d="M282.13,366.033c1.763,4.882,45.641,6.245,45.641,6.245
					s4.894-0.546,15.429-6.364c10.535-5.818,19.434-12.792,19.434-12.792s-22.049,0.145-36.688,0.961
					C309.305,355.01,281.449,364.146,282.13,366.033z"/>
				<path style="fill-rule:evenodd;clip-rule:evenodd;fill:#363636;" d="M411.489,294.842c-0.129-14.519-2.768-12.28-15.31-12.458
					c-6.657-0.095-26.489-2.725-26.489-2.725c-3.043-0.21-6.085,5.491-9.128,13.669l-20.275,59.663
					c-0.013,0.034-0.025,0.067-0.038,0.101c-1.903,5.012-6.68,8.347-12.04,8.476l-46.078,4.467c0,4.812,7.547,8.71,15.514,8.71
					l49.091-0.031c16.115,0,26.779,0.26,39.285-2.172C408.854,368.1,411.734,322.492,411.489,294.842z"/>
			</g>
			<path style="fill-rule:evenodd;clip-rule:evenodd;fill:#525150;" d="M405.264,285.628c4.713,0.555,5.78,2.406,5.796,2.437
				c-1.13-6.944-4.815-5.538-14.881-5.681c-6.657-0.095-26.489-2.725-26.489-2.725c-3.043-0.21-6.085,5.491-9.128,13.669
				l-20.275,59.663c-0.013,0.034-0.025,0.067-0.038,0.101c-1.903,5.012-6.68,8.347-12.04,8.476l-46.078,4.467
				c0,0.54,0.108,1.067,0.288,1.58c6.345-0.551,24.371-2.091,30.32-2.319c7.268-0.28,21.384,0.279,27.158-5.591
				c5.775-5.87,26.651-72.119,28.608-75.333c1.957-3.215,19.427,0.559,25.437,1.258
				C399.952,286.326,400.511,285.068,405.264,285.628z"/>
		</g>
	</g>
	<g>
		<polygon style="opacity:0.4;fill-rule:evenodd;clip-rule:evenodd;fill:#787170;" points="707.194,41.226 721.289,56.879 
			721.289,206.55 514.379,206.55 505.735,194.214 547.289,46.102 		"/>
		<g>
			<path style="fill-rule:evenodd;clip-rule:evenodd;fill:#161416;" d="M505.735,41.226v152.988h201.459V41.226H505.735z
				 M703.227,189.338h-82.754V121.53h82.754V189.338z M703.227,116.043h-24.328h-1.284h-4.876H661.85h-41.377V46.102h41.377h10.888
				h4.876h1.284h24.328V116.043z"/>
			<rect x="620.472" y="183.245" style="fill-rule:evenodd;clip-rule:evenodd;fill:#D9A777;" width="82.379" height="6.093"/>
			<rect x="620.473" y="110.712" style="fill-rule:evenodd;clip-rule:evenodd;fill:#D9A777;" width="82.755" height="5.331"/>
			<rect x="510.456" y="46.102" style="fill-rule:evenodd;clip-rule:evenodd;fill:#D9A777;" width="104.532" height="143.236"/>
			<path style="fill-rule:evenodd;clip-rule:evenodd;fill:#161416;" d="M606.123,109.518c-1.234,0-2.235,1.001-2.235,2.235v17.608
				c0,1.234,1.001,2.235,2.235,2.235c1.234,0,2.235-1.001,2.235-2.235v-17.608C608.358,110.519,607.358,109.518,606.123,109.518z"/>
			<rect x="620.473" y="126.72" style="fill-rule:evenodd;clip-rule:evenodd;fill:#F2D148;" width="7.661" height="56.525"/>
			
				<rect x="631.883" y="126.461" transform="matrix(0.991 -0.1339 0.1339 0.991 -14.9928 86.5149)" style="fill-rule:evenodd;clip-rule:evenodd;fill:#DE5C27;" width="7.661" height="56.525"/>
			
				<rect x="639.464" y="126.461" transform="matrix(0.991 -0.1339 0.1339 0.991 -14.9245 87.5299)" style="fill-rule:evenodd;clip-rule:evenodd;fill:#517AA9;" width="7.661" height="56.525"/>
			
				<rect x="647.061" y="126.718" transform="matrix(0.991 -0.1339 0.1339 0.991 -14.9077 88.293)" style="fill-rule:evenodd;clip-rule:evenodd;fill:#F2D148;" width="3.83" height="56.525"/>
			
				<rect x="650.769" y="126.718" transform="matrix(0.991 -0.1339 0.1339 0.991 -14.8745 88.7918)" style="fill-rule:evenodd;clip-rule:evenodd;fill:#DE5C27;" width="3.83" height="56.525"/>
			
				<rect x="655.652" y="126.866" transform="matrix(0.9821 -0.1886 0.1886 0.9821 -17.4563 126.7975)" style="fill-rule:evenodd;clip-rule:evenodd;fill:#F2D148;" width="3.83" height="56.525"/>
		</g>
		<rect x="630.289" y="101.259" style="fill-rule:evenodd;clip-rule:evenodd;fill:#517AA9;" width="50.667" height="9.452"/>
		<rect x="630.289" y="91.807" style="fill-rule:evenodd;clip-rule:evenodd;fill:#F2D148;" width="50.667" height="9.452"/>
		<rect x="630.289" y="82.355" style="fill-rule:evenodd;clip-rule:evenodd;fill:#DE5C27;" width="50.667" height="9.452"/>
		<rect x="630.289" y="72.902" style="fill-rule:evenodd;clip-rule:evenodd;fill:#F2D148;" width="50.667" height="9.452"/>
	</g>
	<g>
		<g>
			<path style="opacity:0.4;fill-rule:evenodd;clip-rule:evenodd;fill:#595251;" d="M691.41,430.973H520.213
				c-8.717,0-15.784,7.067-15.784,15.784v0c0,8.717,7.067,15.784,15.784,15.784H691.41c8.717,0,15.784-7.067,15.784-15.784v0
				C707.194,438.04,700.127,430.973,691.41,430.973z"/>
			<g>
				<rect x="504.429" y="309.974" style="fill-rule:evenodd;clip-rule:evenodd;fill:#161416;" width="202.765" height="5.256"/>
				<rect x="690.146" y="307.367" style="fill-rule:evenodd;clip-rule:evenodd;fill:#161416;" width="5.689" height="153"/>
				<rect x="514.379" y="307.367" style="fill-rule:evenodd;clip-rule:evenodd;fill:#161416;" width="5.689" height="153"/>
				<rect x="504.429" y="297.479" style="fill-rule:evenodd;clip-rule:evenodd;fill:#D9A777;" width="202.765" height="12.495"/>
			</g>
		</g>
		<g>
			<rect x="520.568" y="315.671" style="fill-rule:evenodd;clip-rule:evenodd;fill:#F8F8F1;" width="83.821" height="28.839"/>
			<path style="fill-rule:evenodd;clip-rule:evenodd;fill:#161416;" d="M551.445,315.671c0,1.792,1.357,3.245,3.03,3.245h17.441
				c1.673,0,3.03-1.453,3.03-3.245H551.445z"/>
			<path style="fill:#161416;" d="M604.889,345.01h-84.821v-29.839h84.821V345.01z M521.068,344.01h82.821v-27.839h-82.821V344.01z"
				/>
			<rect x="520.568" y="344.51" style="fill-rule:evenodd;clip-rule:evenodd;fill:#F8F8F1;" width="83.821" height="28.839"/>
			<path style="fill-rule:evenodd;clip-rule:evenodd;fill:#161416;" d="M551.445,344.51c0,1.792,1.357,3.245,3.03,3.245h17.441
				c1.673,0,3.03-1.453,3.03-3.245H551.445z"/>
			<path style="fill:#161416;" d="M604.889,373.85h-84.821v-29.84h84.821V373.85z M521.068,372.85h82.821v-27.84h-82.821V372.85z"/>
			<rect x="520.568" y="373.35" style="fill-rule:evenodd;clip-rule:evenodd;fill:#F8F8F1;" width="83.821" height="28.839"/>
			<path style="fill-rule:evenodd;clip-rule:evenodd;fill:#161416;" d="M551.445,373.35c0,1.792,1.357,3.245,3.03,3.245h17.441
				c1.673,0,3.03-1.453,3.03-3.245H551.445z"/>
			<path style="fill:#161416;" d="M604.889,402.689h-84.821V372.85h84.821V402.689z M521.068,401.689h82.821V373.85h-82.821V401.689
				z"/>
			<rect x="520.568" y="402.189" style="fill-rule:evenodd;clip-rule:evenodd;fill:#F8F8F1;" width="83.821" height="28.839"/>
			<path style="fill-rule:evenodd;clip-rule:evenodd;fill:#161416;" d="M551.445,402.189c0,1.792,1.357,3.245,3.03,3.245h17.441
				c1.673,0,3.03-1.453,3.03-3.245H551.445z"/>
			<path style="fill:#161416;" d="M604.889,431.529h-84.821v-29.84h84.821V431.529z M521.068,430.529h82.821v-27.84h-82.821V430.529
				z"/>
			<rect x="520.568" y="431.028" style="fill-rule:evenodd;clip-rule:evenodd;fill:#F8F8F1;" width="83.821" height="28.839"/>
			<path style="fill-rule:evenodd;clip-rule:evenodd;fill:#161416;" d="M551.445,431.028c0,1.792,1.357,3.245,3.03,3.245h17.441
				c1.673,0,3.03-1.453,3.03-3.245H551.445z"/>
			<path style="fill:#161416;" d="M604.889,460.367h-84.821v-29.839h84.821V460.367z M521.068,459.367h82.821v-27.839h-82.821
				V459.367z"/>
		</g>
	</g>
	<g>
		<polygon style="opacity:0.4;fill-rule:evenodd;clip-rule:evenodd;fill:#787170;" points="58.623,117.72 460.289,117.72 
			448.482,102.926 58.623,106.926 		"/>
		<rect x="58.623" y="102.926" style="fill-rule:evenodd;clip-rule:evenodd;fill:#161416;" width="389.859" height="4"/>
		<g>
			<g>
				<g>
					<path style="fill:#96B06D;" d="M102.706,69.805c0.022-0.282,2.035-28.311-15.943-37.377l0.465-0.92
						c18.598,9.378,16.529,38.09,16.505,38.379L102.706,69.805z"/>
					<path style="fill-rule:evenodd;clip-rule:evenodd;fill:#96B06D;" d="M90.774,34.339c0,0-5.201-6.959-12.828-5.68
						C77.946,28.659,85.53,34.049,90.774,34.339z"/>
					<path style="fill-rule:evenodd;clip-rule:evenodd;fill:#96B06D;" d="M95.016,38.334c0,0-6.44-5.832-13.68-3.112
						C81.336,35.222,89.814,39.055,95.016,38.334z"/>
					<path style="fill-rule:evenodd;clip-rule:evenodd;fill:#96B06D;" d="M97.836,41.938c0,0-6.614-5.633-13.768-2.695
						C84.068,39.243,92.658,42.817,97.836,41.938z"/>
					<path style="fill-rule:evenodd;clip-rule:evenodd;fill:#96B06D;" d="M99.7,45.872c0,0-6.615-5.633-13.768-2.695
						C85.932,43.177,94.522,46.751,99.7,45.872z"/>
					<path style="fill-rule:evenodd;clip-rule:evenodd;fill:#96B06D;" d="M101.059,49.921c0,0-6.614-5.633-13.768-2.695
						C87.29,47.226,95.881,50.8,101.059,49.921z"/>
					<path style="fill-rule:evenodd;clip-rule:evenodd;fill:#96B06D;" d="M102.182,53.746c0,0-6.615-5.633-13.768-2.695
						C88.414,51.051,97.004,54.625,102.182,53.746z"/>
					<path style="fill-rule:evenodd;clip-rule:evenodd;fill:#96B06D;" d="M102.789,58.035c0,0-6.614-5.633-13.768-2.695
						C89.021,55.34,97.612,58.915,102.789,58.035z"/>
					<path style="fill-rule:evenodd;clip-rule:evenodd;fill:#96B06D;" d="M103.121,61.961c0,0-6.615-5.633-13.768-2.695
						C89.353,59.266,97.944,62.84,103.121,61.961z"/>
					<path style="fill-rule:evenodd;clip-rule:evenodd;fill:#96B06D;" d="M103.338,65.38c0,0-6.615-5.633-13.768-2.695
						C89.57,62.685,98.16,66.26,103.338,65.38z"/>
				</g>
				<g>
					<path style="fill:#96B06D;" d="M104.426,76.382c-0.049-0.279-5.074-27.927-24.744-32.234l0.221-1.007
						c20.347,4.455,25.488,32.778,25.538,33.064L104.426,76.382z"/>
					<path style="fill-rule:evenodd;clip-rule:evenodd;fill:#96B06D;" d="M84.043,45.002c0,0-6.77-5.446-13.838-2.308
						C70.205,42.693,78.892,46.026,84.043,45.002z"/>
					<path style="fill-rule:evenodd;clip-rule:evenodd;fill:#96B06D;" d="M89.146,47.815c0,0-7.689-4.045-14.024,0.39
						C75.122,48.205,84.287,49.808,89.146,47.815z"/>
					<path style="fill-rule:evenodd;clip-rule:evenodd;fill:#96B06D;" d="M92.774,50.604c0,0-7.808-3.81-14.006,0.816
						C78.768,51.42,87.978,52.744,92.774,50.604z"/>
					<path style="fill-rule:evenodd;clip-rule:evenodd;fill:#96B06D;" d="M95.559,53.95c0,0-7.808-3.81-14.006,0.816
						C81.553,54.766,90.763,56.09,95.559,53.95z"/>
					<path style="fill-rule:evenodd;clip-rule:evenodd;fill:#96B06D;" d="M97.882,57.534c0,0-7.808-3.81-14.006,0.816
						C83.876,58.35,93.086,59.674,97.882,57.534z"/>
					<path style="fill-rule:evenodd;clip-rule:evenodd;fill:#96B06D;" d="M99.922,60.959c0,0-7.808-3.81-14.006,0.816
						C85.916,61.775,95.126,63.099,99.922,60.959z"/>
					<path style="fill-rule:evenodd;clip-rule:evenodd;fill:#96B06D;" d="M101.578,64.962c0,0-7.808-3.81-14.006,0.816
						C87.572,65.778,96.782,67.102,101.578,64.962z"/>
					<path style="fill-rule:evenodd;clip-rule:evenodd;fill:#96B06D;" d="M102.876,68.681c0,0-7.808-3.81-14.006,0.816
						C88.87,69.497,98.08,70.822,102.876,68.681z"/>
					<path style="fill-rule:evenodd;clip-rule:evenodd;fill:#96B06D;" d="M103.937,71.939c0,0-7.808-3.81-14.006,0.816
						C89.931,72.756,99.141,74.08,103.937,71.939z"/>
				</g>
				<g>
					<path style="fill:#96B06D;" d="M104.458,65.185c-0.057-0.277-5.577-27.831,11.119-39.085l-0.576-0.854
						c-17.272,11.641-11.611,39.865-11.551,40.149L104.458,65.185z"/>
					<path style="fill-rule:evenodd;clip-rule:evenodd;fill:#96B06D;" d="M111.839,28.5c0,0,4.286-7.558,12.013-7.247
						C123.851,21.253,117.004,27.553,111.839,28.5z"/>
					<path style="fill-rule:evenodd;clip-rule:evenodd;fill:#96B06D;" d="M108.132,32.996c0,0,5.656-6.595,13.18-4.807
						C121.312,28.19,113.383,33.058,108.132,32.996z"/>
					<path style="fill-rule:evenodd;clip-rule:evenodd;fill:#96B06D;" d="M105.787,36.926c0,0,5.854-6.42,13.32-4.404
						C119.108,32.522,111.035,37.148,105.787,36.926z"/>
					<path style="fill-rule:evenodd;clip-rule:evenodd;fill:#96B06D;" d="M104.432,41.063c0,0,5.854-6.42,13.32-4.404
						C117.753,36.659,109.679,41.285,104.432,41.063z"/>
					<path style="fill-rule:evenodd;clip-rule:evenodd;fill:#96B06D;" d="M103.594,45.251c0,0,5.854-6.42,13.32-4.404
						C116.914,40.847,108.841,45.472,103.594,45.251z"/>
					<path style="fill-rule:evenodd;clip-rule:evenodd;fill:#96B06D;" d="M102.96,49.187c0,0,5.854-6.42,13.32-4.404
						C116.28,44.783,108.207,49.409,102.96,49.187z"/>
					<path style="fill-rule:evenodd;clip-rule:evenodd;fill:#96B06D;" d="M102.896,53.518c0,0,5.854-6.42,13.32-4.404
						C116.216,49.114,108.143,53.74,102.896,53.518z"/>
					<path style="fill-rule:evenodd;clip-rule:evenodd;fill:#96B06D;" d="M103.06,57.454c0,0,5.854-6.42,13.32-4.404
						C116.381,53.05,108.307,57.676,103.06,57.454z"/>
					<path style="fill-rule:evenodd;clip-rule:evenodd;fill:#96B06D;" d="M103.275,60.874c0,0,5.854-6.42,13.32-4.404
						C116.595,56.47,108.522,61.096,103.275,60.874z"/>
				</g>
				<g>
					<path style="fill:#96B06D;" d="M103.781,72.698c0.022-0.282,2.373-28.285,21.539-34.458l-0.316-0.981
						c-19.826,6.385-22.228,35.071-22.249,35.36L103.781,72.698z"/>
					<path style="fill-rule:evenodd;clip-rule:evenodd;fill:#96B06D;" d="M121.062,39.508c0,0,6.216-6.07,13.553-3.625
						C134.615,35.883,126.287,40.033,121.062,39.508z"/>
					<path style="fill-rule:evenodd;clip-rule:evenodd;fill:#96B06D;" d="M116.252,42.798c0,0,7.266-4.764,13.997-0.956
						C130.249,41.841,121.279,44.316,116.252,42.798z"/>
					<path style="fill-rule:evenodd;clip-rule:evenodd;fill:#96B06D;" d="M112.908,45.921c0,0,7.407-4.541,14.02-0.531
						C126.927,45.391,117.887,47.592,112.908,45.921z"/>
					<path style="fill-rule:evenodd;clip-rule:evenodd;fill:#96B06D;" d="M110.457,49.519c0,0,7.407-4.541,14.02-0.53
						C124.476,48.989,115.436,51.19,110.457,49.519z"/>
					<path style="fill-rule:evenodd;clip-rule:evenodd;fill:#96B06D;" d="M108.488,53.309c0,0,7.407-4.541,14.02-0.531
						C122.507,52.778,113.467,54.979,108.488,53.309z"/>
					<path style="fill-rule:evenodd;clip-rule:evenodd;fill:#96B06D;" d="M106.786,56.914c0,0,7.407-4.541,14.02-0.531
						C120.805,56.384,111.765,58.585,106.786,56.914z"/>
					<path style="fill-rule:evenodd;clip-rule:evenodd;fill:#96B06D;" d="M105.521,61.057c0,0,7.407-4.541,14.02-0.531
						C119.541,60.527,110.5,62.728,105.521,61.057z"/>
					<path style="fill-rule:evenodd;clip-rule:evenodd;fill:#96B06D;" d="M104.586,64.884c0,0,7.407-4.541,14.019-0.531
						C118.605,64.354,109.565,66.555,104.586,64.884z"/>
					<path style="fill-rule:evenodd;clip-rule:evenodd;fill:#96B06D;" d="M103.842,68.229c0,0,7.407-4.541,14.019-0.531
						C117.861,67.698,108.821,69.899,103.842,68.229z"/>
				</g>
			</g>
			<g>
				<path style="fill-rule:evenodd;clip-rule:evenodd;fill:#E2E3D5;" d="M120.497,69.394h-17.662H85.174
					c-0.451,0-0.783,0.423-0.677,0.861l7.804,32.139c0.076,0.312,0.355,0.532,0.677,0.532h9.857h9.857
					c0.321,0,0.601-0.22,0.677-0.532l7.804-32.139C121.28,69.816,120.948,69.394,120.497,69.394z"/>
				<path style="fill-rule:evenodd;clip-rule:evenodd;fill:#F8F8F1;" d="M120.497,69.394h-17.662H85.174
					c-0.451,0-0.783,0.423-0.677,0.861l0.657,2.704h9.086h10.88c0.278,0,0.482,0.423,0.417,0.861l-4.354,29.106h1.652h9.857
					c0.321,0,0.601-0.22,0.677-0.532l7.804-32.139C121.28,69.816,120.948,69.394,120.497,69.394z"/>
			</g>
		</g>
		<g>
			<g>
				<path style="fill:#F3DC82;" d="M196.413,58.279h-5.518v-2.531h5.518c6.416,0,11.636-5.22,11.636-11.636v-6.134l-7.133-0.016
					v-2.531h7.116c1.405,0,2.547,1.143,2.547,2.547v6.134C210.579,51.924,204.224,58.279,196.413,58.279z"/>
				<path style="fill:#F3DC82;" d="M161.476,58.279h5.518v-2.531h-5.518c-6.416,0-11.636-5.22-11.636-11.636v-6.134l7.133-0.016
					v-2.531h-7.116c-1.405,0-2.547,1.143-2.547,2.547v6.134C147.309,51.924,153.664,58.279,161.476,58.279z"/>
			</g>
			<rect x="153.185" y="25.246" style="fill-rule:evenodd;clip-rule:evenodd;fill:#F2D148;" width="51.519" height="9.312"/>
			<rect x="153.185" y="25.246" style="fill-rule:evenodd;clip-rule:evenodd;fill:#F3DC82;" width="51.519" height="0.924"/>
			<rect x="187.054" y="26.897" style="fill-rule:evenodd;clip-rule:evenodd;fill:#E1BC3A;" width="11.052" height="7.07"/>
			<rect x="153.185" y="26.17" style="fill-rule:evenodd;clip-rule:evenodd;fill:#F3DC82;" width="10.428" height="7.797"/>
			<rect x="166.705" y="26.17" style="fill-rule:evenodd;clip-rule:evenodd;fill:#F3DC82;" width="2.931" height="7.797"/>
			<rect x="200.765" y="26.17" style="fill-rule:evenodd;clip-rule:evenodd;fill:#F3DC82;" width="2.931" height="7.797"/>
			<path style="fill-rule:evenodd;clip-rule:evenodd;fill:#E1BC3A;" d="M178.944,34.558h-22.293V42.5
				c0,11.044,8.953,19.997,19.997,19.997h2.295h2.296c11.044,0,19.997-8.953,19.997-19.997v-7.942H178.944z"/>
			<path style="fill-rule:evenodd;clip-rule:evenodd;fill:#F2D148;" d="M199.942,34.558V42.5c0,11.044-8.953,19.997-19.997,19.997
				h1.296c11.044,0,19.997-8.953,19.997-19.997v-7.942H199.942z"/>
			<path style="fill-rule:evenodd;clip-rule:evenodd;fill:#F2D148;" d="M156.652,35.56v6.94c0,8.549,5.367,15.842,12.914,18.702
				c0.415,0.028,0.833,0.048,1.256,0.048h2.11h2.111c10.155,0,18.387-8.232,18.387-18.387V35.56h-20.498H156.652z"/>
			<path style="fill-rule:evenodd;clip-rule:evenodd;fill:#F3DC82;" d="M176.147,58.514c-4.874-3.645-8.029-9.46-8.029-16.014v-6.94
				h-11.466v6.94c0,8.059,4.768,15,11.636,18.166c0.791,0.365,1.649,0.583,2.52,0.583c0.005,0,0.009,0,0.013,0h2.11h2.111
				c0.079,0,0.157,0,0.235-0.002C176.717,61.23,177.299,59.376,176.147,58.514z"/>
			<polygon style="fill-rule:evenodd;clip-rule:evenodd;fill:#E1BC3A;" points="178.944,62.251 173.994,62.251 173.994,95.349 
				178.944,95.349 183.895,95.349 183.895,62.251 			"/>
			<polygon style="fill-rule:evenodd;clip-rule:evenodd;fill:#F2D148;" points="177.649,63.341 173.994,63.341 173.994,95.349 
				177.649,95.349 181.304,95.349 181.304,63.341 			"/>
			<path style="fill-rule:evenodd;clip-rule:evenodd;fill:#F2D148;" d="M184.737,71.564h-5.792h0h-5.792
				c-0.977,0-1.77,0.771-1.77,1.723c0,0.952,0.793,1.723,1.77,1.723h5.792h0h5.792c0.977,0,1.77-0.772,1.77-1.723
				C186.507,72.335,185.714,71.564,184.737,71.564z"/>
			<path style="fill-rule:evenodd;clip-rule:evenodd;fill:#F2D148;" d="M184.737,66.854h-5.792h0h-5.792
				c-0.977,0-1.77,0.771-1.77,1.723c0,0.952,0.793,1.723,1.77,1.723h5.792h0h5.792c0.977,0,1.77-0.772,1.77-1.723
				C186.507,67.625,185.714,66.854,184.737,66.854z"/>
			<path style="fill-rule:evenodd;clip-rule:evenodd;fill:#F3DC82;" d="M172.068,69.315c0-0.952,0.792-1.723,1.77-1.723h5.792h0
				h5.792c0.335,0,0.644,0.096,0.911,0.253c-0.283-0.584-0.889-0.991-1.596-0.991h-5.792h0h-5.792c-0.977,0-1.77,0.771-1.77,1.723
				c0,0.626,0.346,1.169,0.859,1.47C172.133,69.825,172.068,69.578,172.068,69.315z"/>
			<path style="fill-rule:evenodd;clip-rule:evenodd;fill:#F3DC82;" d="M172.068,74.025c0-0.952,0.792-1.723,1.77-1.723h5.792h0
				h5.792c0.335,0,0.644,0.096,0.911,0.253c-0.283-0.584-0.889-0.991-1.596-0.991h-5.792h0h-5.792c-0.977,0-1.77,0.771-1.77,1.723
				c0,0.626,0.346,1.169,0.859,1.47C172.133,74.535,172.068,74.288,172.068,74.025z"/>
			<path style="fill-rule:evenodd;clip-rule:evenodd;fill:#F3DC82;" d="M195.519,99.793h-16.574h0H162.37
				c-0.963,0-1.743,0.669-1.743,1.495v0.13c0,0.826,0.78,1.495,1.743,1.495h16.574h0h16.574c0.963,0,1.743-0.669,1.743-1.495v-0.13
				C197.262,100.463,196.482,99.793,195.519,99.793z"/>
			<path style="fill-rule:evenodd;clip-rule:evenodd;fill:#F2D148;" d="M181.651,100.391h-16.575c-0.963,0-1.743,0.669-1.743,1.495
				v0.13c0,0.338,0.136,0.647,0.357,0.897h15.254h0h16.574c0.963,0,1.743-0.669,1.743-1.495v-0.13c0-0.338-0.136-0.647-0.357-0.897
				H181.651L181.651,100.391z"/>
			<path style="fill-rule:evenodd;clip-rule:evenodd;fill:#F3DC82;" d="M185.505,95.349h-6.56h0h-6.561
				c-2.86,0-5.178,1.988-5.178,4.44h11.739h0h11.739C190.683,97.337,188.365,95.349,185.505,95.349z"/>
			<path style="fill-rule:evenodd;clip-rule:evenodd;fill:#F2D148;" d="M188.451,96.14h-4.556h0h-6.561
				c-2.545,0-4.656,1.575-5.092,3.649h6.702h0h11.739C190.683,98.276,189.799,96.942,188.451,96.14z"/>
		</g>
		<g>
			<rect x="228.461" y="38.424" style="fill:#F8F8F1;" width="52.456" height="64.488"/>
			<rect x="234.766" y="44.493" style="fill:#E7E7E8;" width="39.844" height="52.35"/>
			<path style="fill:#8B99A7;" d="M252.039,54.464c0,0,1.375-1.663,4.5-1.038s3,3.375,5.75,3.375s4.625,1.375,4.5,2.75
				s-1.125,4.5-2.75,4.75s-3.25,1.105-2.75,2.553c0.5,1.447,2,2.446,0.5,3.447c-1.5,1.001-2.333,1.751-2.333,1.751l0.958,1.236
				c0,0,4-1.861,7.75,2.389s6.446,5.25,6.446,5.25v15.917h-39.844V82.051c0,0,3.023-3.375,5.398-4.375s5.75-0.848,6.75-2.612
				c1-1.763,1.25-2.888,1.25-2.888s-3.375-1.875-3.625-4.75s0.125-2.475,0.5-5.175s-0.25-3.575,0.375-4.825
				S252.039,54.464,252.039,54.464z"/>
		</g>
		<g>
			<g>
				
					<rect x="375" y="43.901" transform="matrix(-1.836970e-16 1 -1 -1.836970e-16 477.8032 -325.0383)" style="fill:#F8F8F1;" width="52.841" height="64.962"/>
				
					<rect x="381.352" y="50.015" transform="matrix(-1.836970e-16 1 -1 -1.836970e-16 477.8031 -325.0383)" style="fill:#8B99A7;" width="40.137" height="52.735"/>
			</g>
			<path style="fill:#E7E7E8;" d="M427.788,96.451V78.56c-1.895-0.864-5.314-2.359-8.665-3.495c-5-1.695-4-3.638-7.333-5.805
				c-3.333-2.167-5.667-3.833-9.5-3.862c-3.833-0.029-4,0.862-6.667,3.362c-2.667,2.5-6.167,3.833-10.667,5.333
				s-9.903,7.5-9.903,7.5v14.858H427.788z"/>
		</g>
		<g>
			<rect x="297.711" y="27.882" style="fill:#F8F8F1;" width="61.031" height="75.03"/>
			<rect x="305.047" y="34.943" style="fill:#E7E7E8;" width="46.358" height="60.908"/>
			<path style="fill:#8B99A7;" d="M305.047,66.854c0,0,4.076-6.594,4.742-7.594c0.667-1,0.741-7,1.537-10s6.796-6.199,9.796-4.766
				c3,1.433,7.04,0.337,7.103,5.468c0.063,5.131,1.103,8.611,0,11.288c-1.103,2.677-1.77,4.677-0.77,6.343
				c1,1.667,3.833,3.667,4.833,1.667s0-4.183,1.333-7.008c1.333-2.825,1.333-3.452,4.5-3.972c3.167-0.52,8.333,1.647,8.333,5.48
				s-1.167,5.151-1.333,6.909c-0.167,1.758,2.051,4.426,4.167,4.342c2.116-0.084,2.116-0.084,2.116-0.084v20.925h-46.358V66.854z"/>
		</g>
	</g>
	<g>
		<rect style="fill-rule:evenodd;clip-rule:evenodd;fill:#161416;" width="58.623" height="333.593"/>
		<rect style="fill-rule:evenodd;clip-rule:evenodd;fill:#F8F8F1;" width="54.627" height="329.236"/>
		<polygon style="fill-rule:evenodd;clip-rule:evenodd;fill:#D6D6CC;" points="0,120.5 29.311,120.5 29.311,174.5 38.5,174.5 
			38.5,86.16 54.627,86.16 54.627,323.633 0,323.633 		"/>
		<polygon style="fill-rule:evenodd;clip-rule:evenodd;fill:#EAEADF;" points="0,177 16.5,177 20,213.472 54.627,213.747 
			54.627,329.236 0,329.236 		"/>
	</g>
</g>
</svg>
